<svg xmlns="http://www.w3.org/2000/svg" viewBox="0 0 100 100" width="100" height="100">
  <!-- Circle background -->
  <circle cx="50" cy="50" r="45" fill="#F5F5F5" />
  
  <!-- Construction helmet -->
  <path d="M50 15C30 15 15 30 15 50H85C85 30 70 15 50 15Z" fill="#C35027" stroke="#2C3E4F" stroke-width="2"/>
  
  <!-- Helmet strap -->
  <path d="M15 50V55C15 75 30 90 50 90C70 90 85 75 85 55V50H15Z" fill="#2C3E4F"/>
  
  <!-- Building silhouette -->
  <rect x="40" y="50" width="20" height="25" fill="#C35027"/>
  <rect x="45" y="60" width="10" height="15" fill="#2C3E4F"/>
  
  <!-- Window details -->
  <rect x="47" y="65" width="6" height="6" fill="#FFFFFF"/>
  
  <!-- Beam details -->
  <rect x="35" y="50" width="30" height="3" fill="#2C3E4F"/>
  <rect x="35" y="57" width="30" height="3" fill="#2C3E4F"/>
  
  <!-- Circle outline -->
  <circle cx="50" cy="50" r="40" fill="none" stroke="#6A6E73" stroke-width="2"/>
</svg>
