<?xml version="1.0" encoding="utf-8" ?>
<svg xmlns="http://www.w3.org/2000/svg" xmlns:xlink="http://www.w3.org/1999/xlink" width="296" height="346">
	<path fill="#EAEAEB" d="M0 0L296 0L296 345.562C295.733 345.732 295.443 345.876 295.128 345.93C293.083 346.283 290.486 345.998 288.386 345.999L272.707 346.002L214.758 346.001L3.39821 345.999C2.31272 345.998 0.944095 346.162 0 345.562L0 0Z"/>
	<path fill="#273E48" d="M180.547 135.842C178.302 130.934 178.968 123.452 180.825 118.452C181.49 116.662 182.397 115.062 183.56 113.55C187.006 109.069 191.01 104.948 194.756 100.711C197.061 98.1039 199.195 95.3553 201.457 92.7117C204.15 89.5639 206.982 86.5341 209.688 83.3966L227.344 63.1265C230.946 58.9384 234.248 54.6148 238.181 50.7032C239.951 48.9432 241.856 47.4308 244.139 46.3746C249.411 43.9348 254.657 43.8909 260.086 45.9261C267.109 48.5584 271.72 52.6548 274.804 59.5074C277.526 65.5586 278.293 72.9725 275.893 79.2592C274.683 82.4298 272.776 85.4345 270.706 88.1104C267.233 92.6015 263.213 96.6827 259.46 100.937L243.729 119.087L226.103 139.25C223.309 142.45 220.606 145.752 217.702 148.852C216.458 150.181 214.648 152.297 212.988 153.054C208.295 155.195 204.307 154.07 199.62 152.778C198.244 158.561 198.474 164.075 198.482 169.968L198.508 185.363C207.106 188.582 215.825 191.382 224.472 194.455C229.808 196.352 235.049 198.489 240.353 200.471C245.5 202.395 251.467 203.854 256.159 206.728C257.934 207.816 259.423 209.427 260.277 211.335C261.246 213.497 261.223 215.792 260.351 217.984C259.28 220.677 257.22 222.693 254.91 224.359C250.032 227.877 244.713 230.848 239.536 233.898C235.087 236.519 230.647 239.289 226.251 242L177.088 272.866L139.761 295.857C133.456 299.81 125.468 305.906 118.766 308.727C114.493 310.526 110.835 309.901 106.678 308.192C102.999 306.679 99.4949 304.66 95.9916 302.78C89.2687 299.173 82.6278 295.397 75.874 291.85C67.9447 287.685 59.841 283.864 51.92 279.673C48.9678 278.111 45.8476 276.633 43.0454 274.82C41.2786 273.677 39.4645 272.283 38.6472 270.28C37.7667 268.121 37.9132 265.922 38.856 263.823C40.412 260.358 57.067 244.388 61.0472 240.39L93.4055 207.907C105.842 195.413 117.748 182.368 130.788 170.482C132.246 169.153 133.886 167.748 135.748 167.04C137.99 166.187 140.733 166.202 143.066 166.605C146.715 167.237 150.297 168.823 153.767 170.092L168.592 175.477C170.663 176.224 172.894 177.23 175.038 177.705C175.426 176.994 174.55 160.481 174.607 158.5C174.719 154.556 175.083 150.34 176.198 146.538C176.989 143.838 178.739 141.458 180.075 139.007C180.77 137.732 180.954 137.235 180.547 135.842Z"/>
	<path fill="#5B6B72" d="M180.547 135.842C183.73 133.129 187.277 129.773 191.808 130.119C193.647 130.26 195.299 131.036 196.501 132.446C197.926 134.118 198.554 136.45 198.94 138.575C193.455 140.767 189.253 144.192 186.877 149.733C185.008 154.093 185.448 158.847 185.455 163.477L185.481 183.222C185.484 186.99 185.79 191.04 185.197 194.756C184.953 196.282 184.411 197.77 183.491 199.021C180.688 202.834 175.369 205.008 171.341 207.357C167.148 209.802 160.321 214.109 156 215.832C155.22 216.143 154.412 216.411 153.586 216.132C153.102 215.645 152.713 215.163 152.334 214.59C156.476 207.813 163.143 202.362 168.543 196.539C170.336 194.606 172.502 192.543 173.65 190.139C175.482 186.303 173.304 181.568 175.038 177.705C175.426 176.994 174.55 160.481 174.607 158.5C174.719 154.556 175.083 150.34 176.198 146.538C176.989 143.838 178.739 141.458 180.075 139.007C180.77 137.732 180.954 137.235 180.547 135.842Z"/>
	<path fill="#5B6B72" d="M140.714 181.006C146.548 180.63 153.482 184.597 158.778 186.78C153.005 193.93 142.345 201.944 139.685 210.65C138.42 214.792 138.489 219.241 140.595 223.098C142.297 226.217 145.065 228.628 148.503 229.611C155.442 231.596 159.516 230.113 165.57 226.769C170.107 224.262 174.482 221.536 178.925 218.873C184.502 215.53 190.971 212.706 195.07 207.443C196.943 205.037 197.793 202.306 198.624 199.428L229.847 210.862C234.316 212.455 238.758 214.262 243.309 215.592C237.461 218.995 231.903 223.02 226.137 226.579L172.38 259.976C160.518 267.312 148.518 274.477 136.735 281.935C133.181 284.184 129.584 286.391 126.064 288.692C122.716 290.88 119.303 293.874 115.511 295.183C113.524 295.869 112.103 295.49 110.196 294.761C107.772 293.833 105.536 292.375 103.246 291.161C99.5451 289.199 95.7856 287.337 92.0697 285.402C82.7906 280.57 73.5929 275.516 64.2628 270.792C60.8524 269.065 57.3218 267.579 53.8964 265.873C57.1319 263.365 59.9096 260.322 62.7762 257.418C66.814 253.366 70.8314 249.295 74.8284 245.203L113.15 206.973C120.947 199.135 128.463 190.717 136.743 183.402C137.994 182.298 139.061 181.407 140.714 181.006Z"/>
	<path fill="#B84A21" d="M250.818 60.5754C253.567 60.269 256.649 61.5481 258.769 63.2491C260.882 64.9444 262.152 67.4965 262.432 70.1718C262.72 72.9198 262.055 76.219 260.654 78.6043C257.892 83.3084 251.132 90.319 247.274 94.7453C236.72 106.851 225.802 118.687 215.616 131.105C215.138 130.022 214.608 128.958 214.095 127.891C210.725 121.911 204.822 118.377 198.378 116.428C200.922 113.976 203.201 111.169 205.511 108.496L214.702 97.8719C221.005 90.4758 227.533 83.2525 233.877 75.8853C237.333 71.8713 242.328 65.1672 246.284 62.0185C247.568 60.9964 249.249 60.8139 250.818 60.5754Z"/>
	<path fill="#B84A21" d="M128.87 24.1135C129.957 23.8646 131.138 24.1721 132.222 24.3564C132.621 25.4082 132.862 26.4611 132.947 27.5852C133.499 34.9288 133.041 42.6173 133.035 49.995C133.03 56.033 133.735 66.5288 132.572 72.0465L132.252 72.04L132.424 72.3633C128.563 73.2424 123.74 72.8529 119.757 72.8575L100.268 72.8671L64.4585 72.8804C57.0439 72.8844 49.5939 73.0584 42.1874 72.712C40.7075 72.5894 39.3076 72.4237 37.8561 72.0869C37.1905 67.9365 37.021 27.3507 37.9903 25.1311C39.2729 24.5154 40.8123 24.3596 42.2162 24.2771C48.8582 23.8866 55.7319 24.2328 62.3943 24.2396L104.202 24.2435C112.406 24.2518 120.676 24.5419 128.87 24.1135Z"/>
	<path fill="#B84A21" d="M97.5637 85.0235L144.485 85.0931C152.095 85.0799 186.14 84.2521 190.508 85.9528L190.67 86.4163C190.275 87.5407 188.901 86.5088 188.113 87.2L188.429 88.1153C188.042 89.9852 175.817 102.622 173.841 105.177C171.852 107.749 170.286 110.536 168.818 113.43C166.027 119.475 166.213 126.364 165.872 132.887C159.277 132.556 152.572 132.777 145.967 132.786C136.88 132.799 127.773 132.696 118.688 132.812C112.275 132.893 102.188 134.707 96.2092 132.845C95.8174 131.791 95.6205 130.652 95.5534 129.533C95.0999 121.975 95.4773 114.189 95.4845 106.609C95.4887 102.214 94.932 91.1669 95.9229 87.3157C96.1916 86.2713 96.6219 85.5819 97.5637 85.0235Z"/>
	<path fill="#B84A21" d="M45.6152 144.627C52.0628 144.526 58.5337 144.681 64.9838 144.699C70.3784 144.714 75.8047 144.57 81.1941 144.719C85.3711 144.834 89.4712 145.42 93.6794 145.452L117.226 145.466C122.042 145.465 128.207 144.883 132.812 146.049C133.87 147.788 133.336 152.068 133.342 154.136C121.8 160.058 116.404 166.14 107.323 175.075C104.163 178.412 100.806 181.488 97.5454 184.721C94.5953 187.646 91.6775 190.902 88.3915 193.448C77.7443 193.35 67.0966 193.323 56.449 193.368C50.9786 193.37 45.3207 193.679 39.8759 193.189C38.7444 191.247 38.0104 188.863 37.8273 186.625C37.5296 182.985 37.43 146.84 38.2219 146.02C39.3884 144.811 43.9329 144.684 45.6152 144.627Z"/>
	<path fill="#B84A21" d="M145.949 24.2754C150.665 23.9957 155.532 24.2398 160.261 24.2441L188.263 24.2623L208.742 24.2489C213.213 24.2475 217.828 24.0069 222.258 24.6348C222.655 26.8341 222.878 29.1309 222.969 31.3635C223.097 34.5262 223.493 45.5527 222.753 47.9625C221.514 51.9937 214.136 58.9761 210.982 62.4075C208.103 65.5112 203.22 69.9682 201.29 73.5157C196.608 72.8585 191.549 73.159 186.808 73.1265C177.622 73.0416 168.435 73.0465 159.249 73.1412C154.831 73.1779 150.064 73.5478 145.686 72.9339C143.923 66.918 144.701 55.0604 144.709 48.4636C144.717 41.675 144.546 34.8444 144.703 28.061C144.741 26.4111 144.691 25.4763 145.949 24.2754Z"/>
	<path fill="#B84A21" d="M42.4113 84.6118C44.8671 84.0526 49.0008 84.4777 51.6414 84.479C60.052 84.4831 70.5125 83.8424 78.6955 85.1016C80.2187 85.336 81.759 86.1204 83.1887 86.6918C83.216 86.9177 83.2408 87.1439 83.263 87.3703C83.7308 92.0245 83.9893 130.527 82.7942 131.909C81.8835 132.963 80.5385 132.903 79.2505 133.008C75.4605 132.664 71.594 132.818 67.7886 132.827L49.0186 132.85C46.1269 132.838 43.0443 133.028 40.1826 132.719C39.6122 132.657 38.9906 132.501 38.5619 132.095C37.7806 131.356 37.7202 129.356 37.624 128.308C37.0789 122.363 37.4774 116.074 37.4727 110.097C37.4676 103.578 37.098 96.8234 37.5557 90.3272C37.6386 89.1499 37.7797 86.2606 38.5642 85.4542C39.3126 84.6847 41.3679 84.7053 42.4113 84.6118Z"/>
	<path fill="#B84A21" d="M44.6539 205.096C49.0396 204.662 53.7444 204.972 58.1582 204.972C64.5906 204.971 71.1311 204.745 77.5505 205.135C73.8993 208.267 70.6242 212.199 67.2871 215.677C62.8995 220.251 58.3475 224.637 54.0131 229.269C50.3479 233.276 46.3179 237.047 42.5313 240.951C40.7993 242.737 38.9349 244.454 37.5313 246.519C37.6341 239.468 37.4949 232.392 37.4865 225.338C37.4788 218.883 37.2617 212.513 38.75 206.182C40.606 205.459 42.6875 205.298 44.6539 205.096Z"/>
	<path fill="#B84A21" d="M149.639 144.492C154.313 144.739 159.067 144.415 163.767 144.592C162.386 149.175 163.008 155.068 163.022 159.818C161.775 159.421 160.543 158.958 159.308 158.523C154.694 156.756 150.001 155.202 145.244 153.867C145.164 151.977 144.722 149.255 145.15 147.449C145.792 144.734 148.173 146.291 149.576 145.403L149.639 144.492Z"/>
</svg>
