<svg version="1.2" xmlns="http://www.w3.org/2000/svg" viewBox="24.000000000000004 12.99999999999999 263 300" width="520" height="512">
	<title>ConstruTherm</title>
	<style>
		.s0 { fill: #273e48 } 
		.s1 { fill: #5b6b72 } 
		.s2 { fill: #b84a21 } 
	</style>
	<g id="Layer 1">
		<path class="s0" d="m186.5 135.8c-2.2-4.9-1.5-12.3 0.3-17.3 0.7-1.8 1.6-3.4 2.8-5 3.4-4.4 7.4-8.6 11.2-12.8 2.3-2.6 4.4-5.3 6.7-8 2.7-3.1 5.5-6.2 8.2-9.3l17.6-20.3c3.6-4.2 6.9-8.5 10.9-12.4 1.8-1.8 3.7-3.3 5.9-4.3 5.3-2.5 10.6-2.5 16-0.5 7 2.7 11.6 6.8 14.7 13.6 2.7 6.1 3.5 13.5 1.1 19.8-1.2 3.1-3.1 6.1-5.2 8.8-3.5 4.5-7.5 8.6-11.2 12.8l-15.8 18.2-17.6 20.1c-2.8 3.2-5.5 6.6-8.4 9.7-1.2 1.3-3.1 3.4-4.7 4.2-4.7 2.1-8.7 1-13.4-0.3-1.4 5.8-1.1 11.3-1.1 17.2v15.4c8.6 3.2 17.3 6 26 9.1 5.3 1.9 10.5 4 15.9 6 5.1 1.9 11.1 3.4 15.8 6.2 1.7 1.1 3.2 2.7 4.1 4.6 0.9 2.2 0.9 4.5 0.1 6.7-1.1 2.7-3.2 4.7-5.5 6.4-4.9 3.5-10.2 6.4-15.4 9.5-4.4 2.6-8.9 5.4-13.2 8.1l-49.2 30.9-37.3 23c-6.3 3.9-14.3 10-21 12.8-4.3 1.8-8 1.2-12.1-0.5-3.7-1.5-7.2-3.5-10.7-5.4-6.7-3.6-13.4-7.4-20.1-10.9-8-4.2-16.1-8-24-12.2-2.9-1.6-6.1-3.1-8.9-4.9-1.7-1.1-3.5-2.5-4.4-4.5-0.8-2.2-0.7-4.4 0.3-6.5 1.5-3.4 18.2-19.4 22.1-23.4l32.4-32.5c12.4-12.5 24.3-25.5 37.4-37.4 1.4-1.3 3.1-2.8 4.9-3.5 2.3-0.8 5-0.8 7.4-0.4 3.6 0.6 7.2 2.2 10.7 3.5l14.8 5.4c2.1 0.7 4.3 1.7 6.4 2.2 0.4-0.7-0.4-17.2-0.4-19.2 0.1-3.9 0.5-8.2 1.6-12 0.8-2.7 2.5-5 3.9-7.5 0.7-1.3 0.9-1.8 0.4-3.2z"/>
		<path class="s1" d="m186.5 135.8c3.2-2.7 6.8-6 11.3-5.7 1.8 0.2 3.5 0.9 4.7 2.3 1.4 1.7 2.1 4 2.4 6.2-5.4 2.2-9.6 5.6-12 11.1-1.9 4.4-1.5 9.1-1.4 13.8v19.7c0 3.8 0.3 7.8-0.3 11.6-0.2 1.5-0.8 3-1.7 4.2-2.8 3.8-8.1 6-12.2 8.4-4.2 2.4-11 6.7-15.3 8.4-0.8 0.3-1.6 0.6-2.4 0.3-0.5-0.5-0.9-0.9-1.3-1.5 4.2-6.8 10.8-12.2 16.2-18.1 1.8-1.9 4-4 5.2-6.4 1.8-3.8-0.4-8.5 1.3-12.4 0.4-0.7-0.4-17.2-0.4-19.2 0.1-3.9 0.5-8.2 1.6-12 0.8-2.7 2.5-5 3.9-7.5 0.7-1.3 0.9-1.8 0.4-3.2z"/>
		<path class="s1" d="m146.7 181c5.8-0.4 12.8 3.6 18.1 5.8-5.8 7.1-16.5 15.1-19.1 23.9-1.3 4.1-1.2 8.5 0.9 12.4 1.7 3.1 4.5 5.5 7.9 6.5 6.9 2 11 0.5 17.1-2.8 4.5-2.5 8.9-5.3 13.3-7.9 5.6-3.4 12.1-6.2 16.2-11.5 1.8-2.4 2.7-5.1 3.5-8l31.2 11.5c4.5 1.6 9 3.4 13.5 4.7-5.8 3.4-11.4 7.4-17.2 11l-53.7 33.4c-11.9 7.3-23.9 14.5-35.7 21.9-3.5 2.3-7.1 4.5-10.6 6.8-3.4 2.2-6.8 5.2-10.6 6.5-2 0.7-3.4 0.3-5.3-0.4-2.4-1-4.7-2.4-7-3.6-3.7-2-7.4-3.9-11.1-5.8-9.3-4.8-18.5-9.9-27.8-14.6-3.4-1.7-7-3.2-10.4-4.9 3.2-2.5 6-5.6 8.9-8.5q6-6.1 12-12.2l38.4-38.2c7.7-7.9 15.3-16.3 23.5-23.6 1.3-1.1 2.4-2 4-2.4z"/>
		<path class="s2" d="m256.8 60.6c2.8-0.3 5.8 0.9 8 2.6 2.1 1.7 3.4 4.3 3.6 7 0.3 2.7-0.3 6-1.7 8.4-2.8 4.7-9.6 11.7-13.4 16.1-10.6 12.2-21.5 24-31.7 36.4-0.5-1.1-1-2.1-1.5-3.2-3.4-6-9.3-9.5-15.7-11.5 2.5-2.4 4.8-5.2 7.1-7.9l9.2-10.6c6.3-7.4 12.8-14.6 19.2-22 3.4-4 8.4-10.7 12.4-13.9 1.3-1 2.9-1.2 4.5-1.4z"/>
		<path class="s2" d="m134.9 24.1c1.1-0.2 2.2 0.1 3.3 0.3 0.4 1 0.7 2.1 0.7 3.2 0.6 7.3 0.1 15 0.1 22.4 0 6 0.7 16.5-0.4 22h-0.3l0.1 0.4c-3.8 0.8-8.7 0.5-12.6 0.5h-19.5-35.8c-7.5 0-14.9 0.2-22.3-0.2-1.5-0.1-2.9-0.3-4.3-0.6-0.7-4.2-0.9-44.7 0.1-47 1.3-0.6 2.8-0.7 4.2-0.8 6.7-0.4 13.5-0.1 20.2-0.1h41.8c8.2 0.1 16.5 0.3 24.7-0.1z"/>
		<path class="s2" d="m103.6 85l46.9 0.1c7.6 0 41.6-0.8 46 0.9l0.2 0.4c-0.4 1.1-1.8 0.1-2.6 0.8l0.3 0.9c-0.4 1.9-12.6 14.5-14.6 17.1-1.9 2.5-3.5 5.3-5 8.2-2.8 6.1-2.6 13-2.9 19.5-6.6-0.3-13.3-0.1-19.9-0.1-9.1 0-18.2-0.1-27.3 0-6.4 0.1-16.5 1.9-22.5 0-0.4-1-0.6-2.1-0.6-3.3-0.5-7.5-0.1-15.3-0.1-22.9 0-4.4-0.6-15.4 0.4-19.3 0.3-1 0.7-1.7 1.7-2.3z"/>
		<path class="s2" d="m51.6 144.6c6.5-0.1 12.9 0.1 19.4 0.1 5.4 0 10.8-0.1 16.2 0 4.2 0.1 8.3 0.7 12.5 0.8h23.5c4.8 0 11-0.6 15.6 0.5 1.1 1.8 0.5 6.1 0.5 8.1-11.5 6-16.9 12-26 21-3.1 3.3-6.5 6.4-9.8 9.6-2.9 2.9-5.8 6.2-9.1 8.7q-16-0.1-32 0c-5.4 0-11.1 0.3-16.5-0.2-1.2-2-1.9-4.3-2.1-6.6-0.3-3.6-0.4-39.8 0.4-40.6 1.2-1.2 5.7-1.3 7.4-1.4z"/>
		<path class="s2" d="m151.9 24.3c4.8-0.3 9.6-0.1 14.4-0.1l28 0.1 20.4-0.1c4.5 0 9.1-0.2 13.6 0.4 0.4 2.2 0.6 4.5 0.7 6.8 0.1 3.1 0.5 14.2-0.2 16.6-1.3 4-8.7 11-11.8 14.4-2.9 3.1-7.8 7.6-9.7 11.1-4.7-0.6-9.8-0.3-14.5-0.4q-13.8-0.1-27.6 0c-4.4 0.1-9.1 0.4-13.5-0.2-1.8-6-1-17.8-1-24.4 0-6.8-0.2-13.7 0-20.4 0-1.7 0-2.6 1.2-3.8z"/>
		<path class="s2" d="m48.4 84.6c2.5-0.5 6.6-0.1 9.2-0.1 8.5 0 18.9-0.7 27.1 0.6 1.5 0.2 3.1 1 4.5 1.6q0 0.3 0.1 0.7c0.4 4.6 0.7 43.1-0.5 44.5-0.9 1.1-2.3 1-3.5 1.1-3.8-0.3-7.7-0.2-11.5-0.2h-18.8c-2.9 0-6 0.2-8.8-0.1-0.6 0-1.2-0.2-1.6-0.6-0.8-0.7-0.9-2.7-1-3.8-0.5-5.9-0.1-12.2-0.1-18.2 0-6.5-0.4-13.3 0.1-19.8 0-1.2 0.2-4 1-4.8 0.7-0.8 2.8-0.8 3.8-0.9z"/>
		<path class="s2" d="m50.7 205.1c4.3-0.4 9-0.1 13.5-0.1 6.4 0 12.9-0.3 19.4 0.1-3.7 3.2-7 7.1-10.3 10.6-4.4 4.6-9 8.9-13.3 13.6-3.7 4-7.7 7.7-11.5 11.7-1.7 1.7-3.6 3.5-5 5.5 0.1-7 0-14.1 0-21.2 0-6.4-0.2-12.8 1.3-19.1 1.8-0.7 3.9-0.9 5.9-1.1z"/>
		<path class="s2" d="m155.6 144.5c4.7 0.2 9.5-0.1 14.2 0.1-1.4 4.6-0.8 10.5-0.8 15.2-1.2-0.4-2.5-0.8-3.7-1.3q-6.9-2.6-14.1-4.6c0-1.9-0.5-4.6 0-6.5 0.6-2.7 3-1.1 4.4-2z"/>
	</g>
</svg>